# AST/ASF file generated using VICON BodyLanguage
# -----------------------------------------------
:version 1.10
:name VICON
:units
  mass 1.0
  length 0.45
  angle deg
:documentation
   .ast/.asf automatically generated from VICON data using
   VICON BodyBuilder and BodyLanguage model FoxedUp or BRILLIANT.MOD
:root
   order TX TY TZ RX RY RZ
   axis XYZ
   position 0 0 0  
   orientation 0 0 0 
:bonedata
  begin
     id 1 
     name lhipjoint
     direction 0.661853 -0.702389 0.261917 
     length 2.64193 
     axis 0 0 0  XYZ
  end
  begin
     id 2 
     name lfemur
     direction 0.34202 -0.939693 0  
     length 7.01722  
     axis 0 0 20  XYZ
    dof rx ry rz
    limits (-160.0 20.0)
           (-70.0 70.0)
           (-60.0 70.0)
  end
  begin
     id 3 
     name ltibia
     direction 0.34202 -0.939693 0   
     length 8.25008   
     axis 0 0 20   XYZ
    dof rx
    limits (-10.0 170.0)
  end
  begin
     id 4 
     name lfoot
     direction 0.0709916 -0.195048 0.978221   
     length 2.31941   
     axis -90 7.62852e-016 20   XYZ
    dof rx rz
    limits (-45.0 90.0)
           (-70.0 20.0)
  end
  begin
     id 5 
     name ltoes
     direction 1.53586e-011 -4.22017e-011 1   
     length 1.16486   
     axis -90 7.62852e-016 20   XYZ
    dof rx
    limits (-90.0 20.0)
  end
  begin
     id 6 
     name rhipjoint
     direction -0.638185 -0.721362 0.268992   
     length 2.57244  
     axis 0 0 0  XYZ 
  end
  begin
     id 7 
     name rfemur
     direction -0.34202 -0.939693 0   
     length 7.07017   
     axis 0 0 -20   XYZ
    dof rx ry rz
    limits (-160.0 20.0)
           (-70.0 70.0)
           (-70.0 60.0)
  end
  begin
     id 8 
     name rtibia
     direction -0.34202 -0.939693 0   
     length 8.20386   
     axis 0 0 -20   XYZ
    dof rx
    limits (-10.0 170.0)
 end
 begin
     id 9 
     name rfoot
     direction -0.0822429 -0.225961 0.970658   
     length 2.32215  
     axis -90 -7.62852e-016 -20   XYZ
    dof rx rz
    limits (-45.0 90.0)
           (-20.0 70.0)
  end
  begin
     id 10 
     name rtoes
     direction -1.53597e-011 -4.21689e-011 1   
     length 1.16333   
     axis -90 -7.62852e-016 -20   XYZ
    dof rx
    limits (-90.0 20.0)
  end
  begin
     id 11 
     name lowerback
     direction -0.0131557 0.998589 -0.0514484   
     length 2.14993   
     axis 0 0 0   XYZ
    dof rx ry rz
    limits (-20.0 45.0)
           (-30.0 30.0)
           (-30.0 30.0)
  end
  begin
     id 12 
     name upperback
     direction -0.000776481 0.999993 0.00352685   
     length 2.15301   
     axis 0 0 0   XYZ
    dof rx ry rz
    limits (-20.0 45.0)
           (-30.0 30.0)
           (-30.0 30.0)
  end
  begin
     id 13 
     name thorax
     direction 0.00438186 0.999609 0.0276143   
     length 2.15424   
     axis 0 0 0   XYZ
    dof rx ry rz
    limits (-20.0 45.0)
           (-30.0 30.0)
           (-30.0 30.0)
  end
  begin
     id 14 
     name lowerneck
     direction -0.0488006 0.998094 0.0377807   
     length 1.90481   
     axis 0 0 0   XYZ
    dof rx ry rz
    limits (-20.0 45.0)
           (-30.0 30.0)
           (-30.0 30.0)
  end
  begin
     id 15 
     name upperneck
     direction 0.0443769 0.990702 -0.12861   
     length 1.91305   
     axis 0 0 0   XYZ
    dof rx ry rz
    limits (-20.0 45.0)
           (-30.0 30.0)
           (-30.0 30.0)
  end
  begin
     id 16
     name head
     direction 0.0165599 0.998647 -0.0492982  
     length 1.92369  
     axis 0 0 0   XYZ
    dof rx ry rz
    limits (-20.0 45.0)
           (-30.0 30.0)
           (-30.0 30.0)
  end
  begin
     id 17 
     name lclavicle
     direction 0.911936 0.410197 -0.0105506  
     length 3.52622  
     axis 0 0 0   XYZ
    dof ry rz
    limits (-20.0 10.0)
           (0.0 20.0)
  end
  begin
     id 18 
     name lhumerus
     direction 1 -4.48974e-011 -2.48591e-028   
     length 5.47651   
     axis 180 -30 -90   XYZ
    dof rx ry rz
    limits (-60.0 90.0)
           (-90.0 90.0)
           (-90.0 90.0)
  end
  begin
     id 19
     name lradius
     direction 1 -4.48938e-011 -4.40099e-027   
     length 3.09058   
     axis 180 -30 -90   XYZ
    dof rx
    limits (-10.0 170.0)
  end
  begin
     id 20
     name lwrist
     direction 1 -4.49042e-011 -2.99852e-027   
     length 1.54529   
     axis 1.95339e-015 90 90   XYZ
    dof ry
    limits (-180.0 0.0)
 end
  begin
     id 21 
     name lhand
     direction 1 -4.48815e-011 -5.98193e-027   
     length 0.771611   
     axis 3.82337e-015 90 90   XYZ
    dof rx rz
    limits (-90.0 90.0)
           (-45.0 45.0)
  end
  begin
     id 22 
     name lfingers
     direction 1 -4.49034e-011 -1.1993e-026   
     length 0.622093   
     axis 7.64668e-015 90 90   XYZ
    dof rx
    limits (0.0 90.0)
  end
  begin
     id 23
     name lthumb
     direction 0.707107 -6.34867e-011 0.707107   
     length 0.893204   
     axis -90 45 -1.62303e-014   XYZ
    dof rx rz
    limits (-45.0 45.0)
           (-45.0 45.0)
  end
  begin
     id 24 
     name rclavicle
     direction -0.93442 0.355634 -0.0195692   
     length 3.62463  
     axis 0 0 0   XYZ 
    dof ry rz
    limits (-10.0 20.0)
           (-20.0 0.0)
  end
  begin
     id 25 
     name rhumerus
     direction -1 -4.48957e-011 -1.19147e-027  
     length 5.14182   
     axis 180 30 90   XYZ
    dof rx ry rz
    limits (-90.0 60.0)
           (-90.0 90.0)
           (-90.0 90.0)
  end
  begin
     id 26 
     name rradius
     direction -1 -4.48952e-011 -3.81062e-027   
     length 3.35565   
     axis 180 30 90   XYZ
    dof rx
    limits (-10.0 170.0)
  end
  begin
     id 27 
     name rwrist
     direction -1 -4.48973e-011 -2.99621e-027   
     length 1.67782   
     axis 1.95339e-015 -90 -90   XYZ
    dof ry
    limits (-180.0 0.0)
  end
  begin
     id 28
     name rhand
     direction -1 -4.48895e-011 -5.98727e-027   
     length 0.801042   
     axis 3.82337e-015 -90 -90   XYZ
    dof rx rz
    limits (-90.0 90.0)
           (-45.0 45.0)
  end
  begin
     id 29
     name rfingers
     direction -1 -4.49065e-011 -1.19972e-026   
     length 0.645821   
     axis 7.64668e-015 -90 -90   XYZ
    dof rx
    limits (0.0 90.0)
  end
  begin
     id 30
     name rthumb
     direction -0.707107 -6.34957e-011 0.707107   
     length 0.927273   
     axis -90 -45 1.62303e-014   XYZ
    dof rx rz
    limits (-45.0 45.0)
           (-45.0 45.0)
  end
:hierarchy
  begin
    root lhipjoint rhipjoint lowerback
    lhipjoint lfemur
    lfemur ltibia
    ltibia lfoot
    lfoot ltoes
    rhipjoint rfemur
    rfemur rtibia
    rtibia rfoot
    rfoot rtoes
    lowerback upperback
    upperback thorax
    thorax lowerneck lclavicle rclavicle
    lowerneck upperneck
    upperneck head
    lclavicle lhumerus
    lhumerus lradius
    lradius lwrist
    lwrist lhand lthumb
    lhand lfingers
    rclavicle rhumerus
    rhumerus rradius
    rradius rwrist
    rwrist rhand rthumb
    rhand rfingers
  end

#!OML:ASF E:\Style4\Style4.ASF
:FULLY-SPECIFIED
:DEGREES
266
root -0.139378 18.0884 -1.03176 0.287904 -21.1045 1.16711
lowerback 5.1278 -0.889022 -8.29525
upperback 9.87025 -1.2002 -2.08212
thorax 7.70719 -1.15947 2.39216
lowerneck 2.75403 6.31776 -2.76055
upperneck 5.96814 8.28433 1.11404
head 1.22161 4.06673 0.803991
rclavicle 3.37934e-014 -2.06736e-014
rhumerus -29.7016 21.0743 -93.9974
rradius 36.215
rwrist -51.5824
rhand -4.07031 4.5031
rfingers 7.12502
rthumb 21.6864 -24.3023
lclavicle 3.37934e-014 -2.06736e-014
lhumerus -31.4039 -6.35887 84.9128
lradius 30.5209
lwrist 28.6919
lhand -2.25592 36.7887
lfingers 7.12502
lthumb 23.4279 65.3825
rfemur -11.7822 14.0464 19.1157
rtibia 21.7188
rfoot -11.9357 -1.26005
rtoes -12.2678
lfemur -3.51658 1.64813 -19.7605
ltibia 18.9856
lfoot -20.2401 19.7954
ltoes -4.40574
267
root -0.171828 18.0875 -1.03045 0.27758 -20.7829 1.01511
lowerback 5.1181 -0.80602 -8.25671
upperback 9.86667 -1.08382 -2.13588
thorax 7.69289 -1.09532 2.31666
lowerneck 2.70077 6.2108 -2.93135
upperneck 6.15251 8.11802 1.68385
head 1.26154 3.98657 1.0133
rclavicle -3.93594e-014 -3.26007e-014
rhumerus -29.7015 21.3578 -94.0809
rradius 36.0446
rwrist -51.5167
rhand -3.91647 4.36595
rfingers 7.12502
rthumb 21.8342 -24.4223
lclavicle -3.93594e-014 -3.26007e-014
lhumerus -31.3273 -6.04077 84.7595
lradius 30.5242
lwrist 28.6211
lhand -2.23148 36.8692
lfingers 7.12502
lthumb 23.4514 65.46
rfemur -11.5709 13.8559 19.4096
rtibia 21.6493
rfoot -11.9485 -1.3806
rtoes -12.26
lfemur -3.43406 1.42622 -19.498
ltibia 18.9821
lfoot -20.1774 19.7329
ltoes -4.74364
268
root -0.205977 18.0853 -1.03105 0.281083 -20.4141 0.77169
lowerback 5.1534 -0.689201 -8.11347
upperback 9.86111 -0.927018 -2.18257
thorax 7.64183 -1.00252 2.19285
lowerneck 2.67542 6.0564 -3.00807
upperneck 6.31748 7.88862 2.23796
head 1.29812 3.8775 1.20314
rclavicle -1.4074e-013 5.32743e-014
rhumerus -29.6928 21.3643 -94.1524
rradius 35.8379
rwrist -51.317
rhand -3.7543 4.15259
rfingers 7.12502
rthumb 21.9899 -24.6174
lclavicle -1.4074e-013 5.32743e-014
lhumerus -31.3086 -5.87057 84.6151
lradius 30.611
lwrist 28.4192
lhand -2.38899 37.081
lfingers 7.12502
lthumb 23.3003 65.691
rfemur -11.3246 13.6039 19.8135
rtibia 21.5417
rfoot -11.9643 -1.49723
rtoes -12.0345
lfemur -3.36626 1.19699 -19.1278
ltibia 19.0095
lfoot -20.089 19.6307
ltoes -5.01485
269
root -0.238879 18.0845 -1.02859 0.254431 -20.0276 0.770719
lowerback 5.07077 -0.562886 -8.15529
upperback 9.84997 -0.741354 -2.31001
thorax 7.65761 -0.907073 2.08376
lowerneck 2.76325 5.8904 -2.96975
upperneck 6.4348 7.64247 2.74859
head 1.30858 3.76203 1.35661
rclavicle -5.92378e-014 -1.43125e-014
rhumerus -29.7299 21.3617 -94.2533
rradius 35.7224
rwrist -51.1831
rhand -3.48256 3.88462
rfingers 7.12502
rthumb 22.2508 -24.8545
lclavicle -5.92378e-014 -1.43125e-014
lhumerus -31.316 -5.87514 84.5361
lradius 30.7362
lwrist 28.4511
lhand -2.73903 37.2053
lfingers 7.12502
lthumb 22.9644 65.8574
rfemur -11.1155 13.209 19.9416
rtibia 21.3937
rfoot -11.98 -1.51848
rtoes -11.8904
lfemur -3.38726 0.904261 -19.0202
ltibia 19.0943
lfoot -20.1194 19.4889
ltoes -4.69778
270
root -0.271088 18.0852 -1.02652 0.21186 -19.662 0.742751
lowerback 4.98563 -0.426976 -8.1475
upperback 9.89455 -0.539735 -2.43559
thorax 7.73422 -0.803845 1.94824
lowerneck 2.69431 5.72153 -2.95822
upperneck 6.59081 7.39634 3.25137
head 1.35869 3.6472 1.52029
rclavicle -2.66371e-014 6.36111e-015
rhumerus -29.6268 21.3861 -94.3117
rradius 35.5343
rwrist -51.0855
rhand -3.11086 3.80863
rfingers 7.12502
rthumb 22.6076 -24.8875
lclavicle -2.66371e-014 6.36111e-015
lhumerus -31.1498 -5.78938 84.4721
lradius 30.6826
lwrist 28.4885
lhand -3.14801 37.1176
lfingers 7.12502
lthumb 22.5719 65.8181
rfemur -10.8783 12.9646 20.0998
rtibia 21.2435
rfoot -11.9746 -1.63433
rtoes -11.7989
lfemur -3.39297 0.629301 -18.8849
ltibia 19.1807
lfoot -19.9974 19.4733
ltoes -4.9679
